mtllib boat.mtl
o Sailboat

# --- Hull Bottom Vertices ---
v 0.0 -0.2 1.2
v -0.3 -0.2 0.0
v 0.3 -0.2 0.0
v -0.25 -0.2 -1.0
v 0.25 -0.2 -1.0

# --- Hull Deck Vertices ---
v 0.0 0.2 1.5
v -0.5 0.2 0.0
v 0.5 0.2 0.0
v -0.4 0.2 -1.2
v 0.4 0.2 -1.2

# --- Mast Vertices ---
v -0.05 0.2 0.05
v 0.05 0.2 0.05
v 0.05 0.2 -0.05
v -0.05 0.2 -0.05
v -0.03 1.8 0.03
v 0.03 1.8 0.03
v 0.03 1.8 -0.03
v -0.03 1.8 -0.03

# --- Sail Vertices ---
v 0.0 0.5 -0.1
v 0.0 1.6 -0.1
v 0.0 0.6 -0.9

# --- Hull Geometry ---
usemtl Wood

# Bottom faces
f 1 2 3
f 2 4 5
f 2 5 3

# Side faces
f 1 6 7
f 1 7 2
f 1 3 8
f 1 8 6
f 2 7 9
f 2 9 4
f 3 5 10
f 3 10 8
f 4 9 10
f 4 10 5

# Deck faces
f 6 8 7
f 7 8 10
f 7 10 9

# --- Mast Geometry ---
usemtl Mast
f 11 12 16
f 11 16 15
f 12 13 17
f 12 17 16
f 13 14 18
f 13 18 17
f 14 11 15
f 14 15 18
f 15 16 17
f 15 17 18

# --- Sail Geometry ---
usemtl Sail
f 19 20 21
f 19 21 20
